<svg width="160" height="33" viewBox="0 0 160 33" fill="none" xmlns="http://www.w3.org/2000/svg">
<path d="M12.475 25.42C10.0017 25.42 7.87833 24.895 6.105 23.845C4.33167 22.7717 2.96667 21.29 2.01 19.4C1.05333 17.4867 0.575001 15.2817 0.575001 12.785C0.575001 10.2883 1.05333 8.08333 2.01 6.17C2.96667 4.25667 4.33167 2.76333 6.105 1.69C7.87833 0.616665 10.0017 0.079998 12.475 0.079998C15.415 0.079998 17.8183 0.814997 19.685 2.285C21.575 3.73167 22.7533 5.77333 23.22 8.41H18.285C17.9817 7.08 17.3283 6.04167 16.325 5.295C15.345 4.525 14.0383 4.14 12.405 4.14C10.1417 4.14 8.36833 4.91 7.085 6.45C5.80167 7.99 5.16 10.1017 5.16 12.785C5.16 15.4683 5.80167 17.58 7.085 19.12C8.36833 20.6367 10.1417 21.395 12.405 21.395C14.0383 21.395 15.345 21.045 16.325 20.345C17.3283 19.6217 17.9817 18.63 18.285 17.37H23.22C22.7533 19.89 21.575 21.8617 19.685 23.285C17.8183 24.7083 15.415 25.42 12.475 25.42ZM32.3657 25.42C30.8723 25.42 29.6473 25.1867 28.6907 24.72C27.734 24.23 27.0223 23.5883 26.5557 22.795C26.089 22.0017 25.8557 21.1267 25.8557 20.17C25.8557 18.56 26.4857 17.2533 27.7457 16.25C29.0057 15.2467 30.8957 14.745 33.4157 14.745H37.8257V14.325C37.8257 13.135 37.4873 12.26 36.8107 11.7C36.134 11.14 35.294 10.86 34.2907 10.86C33.3807 10.86 32.5873 11.0817 31.9107 11.525C31.234 11.945 30.814 12.575 30.6507 13.415H26.2757C26.3923 12.155 26.8123 11.0583 27.5357 10.125C28.2823 9.19167 29.239 8.48 30.4057 7.99C31.5723 7.47667 32.879 7.22 34.3257 7.22C36.799 7.22 38.7473 7.83833 40.1707 9.075C41.594 10.3117 42.3057 12.0617 42.3057 14.325V25H38.4907L38.0707 22.2C37.5573 23.1333 36.834 23.9033 35.9007 24.51C34.9907 25.1167 33.8123 25.42 32.3657 25.42ZM33.3807 21.92C34.664 21.92 35.6557 21.5 36.3557 20.66C37.079 19.82 37.534 18.7817 37.7207 17.545H33.9057C32.7157 17.545 31.864 17.7667 31.3507 18.21C30.8373 18.63 30.5807 19.155 30.5807 19.785C30.5807 20.4617 30.8373 20.9867 31.3507 21.36C31.864 21.7333 32.5407 21.92 33.3807 21.92ZM53.0559 25.42C51.5159 25.42 50.1625 25.175 48.9959 24.685C47.8292 24.1717 46.8959 23.4717 46.1959 22.585C45.4959 21.6983 45.0759 20.6717 44.9359 19.505H49.4509C49.5909 20.1817 49.9642 20.765 50.5709 21.255C51.2009 21.7217 52.0059 21.955 52.9859 21.955C53.9659 21.955 54.6775 21.7567 55.1209 21.36C55.5875 20.9633 55.8209 20.5083 55.8209 19.995C55.8209 19.2483 55.4942 18.7467 54.8409 18.49C54.1875 18.21 53.2775 17.9417 52.1109 17.685C51.3642 17.5217 50.6059 17.3233 49.8359 17.09C49.0659 16.8567 48.3542 16.565 47.7009 16.215C47.0709 15.8417 46.5575 15.375 46.1609 14.815C45.7642 14.2317 45.5659 13.52 45.5659 12.68C45.5659 11.14 46.1725 9.845 47.3859 8.795C48.6225 7.745 50.3492 7.22 52.5659 7.22C54.6192 7.22 56.2525 7.69833 57.4659 8.655C58.7025 9.61167 59.4375 10.93 59.6709 12.61H55.4359C55.1792 11.3267 54.2109 10.685 52.5309 10.685C51.6909 10.685 51.0375 10.8483 50.5709 11.175C50.1275 11.5017 49.9059 11.91 49.9059 12.4C49.9059 12.9133 50.2442 13.3217 50.9209 13.625C51.5975 13.9283 52.4959 14.2083 53.6159 14.465C54.8292 14.745 55.9375 15.06 56.9409 15.41C57.9675 15.7367 58.7842 16.2383 59.3909 16.915C59.9975 17.5683 60.3009 18.5133 60.3009 19.75C60.3242 20.8233 60.0442 21.7917 59.4609 22.655C58.8775 23.5183 58.0375 24.195 56.9409 24.685C55.8442 25.175 54.5492 25.42 53.0559 25.42ZM70.7577 25C68.9377 25 67.4793 24.5567 66.3827 23.67C65.286 22.7833 64.7377 21.2083 64.7377 18.945V11.385H61.7627V7.64H64.7377L65.2627 2.985H69.2177V7.64H73.9077V11.385H69.2177V18.98C69.2177 19.82 69.3927 20.4033 69.7427 20.73C70.116 21.0333 70.746 21.185 71.6327 21.185H73.8027V25H70.7577ZM83.0391 25.42C81.5458 25.42 80.3208 25.1867 79.3641 24.72C78.4074 24.23 77.6958 23.5883 77.2291 22.795C76.7624 22.0017 76.5291 21.1267 76.5291 20.17C76.5291 18.56 77.1591 17.2533 78.4191 16.25C79.6791 15.2467 81.5691 14.745 84.0891 14.745H88.4991V14.325C88.4991 13.135 88.1608 12.26 87.4841 11.7C86.8074 11.14 85.9674 10.86 84.9641 10.86C84.0541 10.86 83.2608 11.0817 82.5841 11.525C81.9074 11.945 81.4874 12.575 81.3241 13.415H76.9491C77.0658 12.155 77.4858 11.0583 78.2091 10.125C78.9558 9.19167 79.9124 8.48 81.0791 7.99C82.2458 7.47667 83.5524 7.22 84.9991 7.22C87.4724 7.22 89.4208 7.83833 90.8441 9.075C92.2674 10.3117 92.9791 12.0617 92.9791 14.325V25H89.1641L88.7441 22.2C88.2308 23.1333 87.5074 23.9033 86.5741 24.51C85.6641 25.1167 84.4858 25.42 83.0391 25.42ZM84.0541 21.92C85.3374 21.92 86.3291 21.5 87.0291 20.66C87.7524 19.82 88.2074 18.7817 88.3941 17.545H84.5791C83.3891 17.545 82.5374 17.7667 82.0241 18.21C81.5108 18.63 81.2541 19.155 81.2541 19.785C81.2541 20.4617 81.5108 20.9867 82.0241 21.36C82.5374 21.7333 83.2141 21.92 84.0541 21.92ZM99.7784 25L94.7034 7.64H99.1484L102.158 20.135L105.658 7.64H110.628L114.128 20.135L117.173 7.64H121.618L116.508 25H111.853L108.143 12.015L104.433 25H99.7784ZM128.841 25.42C127.348 25.42 126.123 25.1867 125.166 24.72C124.21 24.23 123.498 23.5883 123.031 22.795C122.565 22.0017 122.331 21.1267 122.331 20.17C122.331 18.56 122.961 17.2533 124.221 16.25C125.481 15.2467 127.371 14.745 129.891 14.745H134.301V14.325C134.301 13.135 133.963 12.26 133.286 11.7C132.61 11.14 131.77 10.86 130.766 10.86C129.856 10.86 129.063 11.0817 128.386 11.525C127.71 11.945 127.29 12.575 127.126 13.415H122.751C122.868 12.155 123.288 11.0583 124.011 10.125C124.758 9.19167 125.715 8.48 126.881 7.99C128.048 7.47667 129.355 7.22 130.801 7.22C133.275 7.22 135.223 7.83833 136.646 9.075C138.07 10.3117 138.781 12.0617 138.781 14.325V25H134.966L134.546 22.2C134.033 23.1333 133.31 23.9033 132.376 24.51C131.466 25.1167 130.288 25.42 128.841 25.42ZM129.856 21.92C131.14 21.92 132.131 21.5 132.831 20.66C133.555 19.82 134.01 18.7817 134.196 17.545H130.381C129.191 17.545 128.34 17.7667 127.826 18.21C127.313 18.63 127.056 19.155 127.056 19.785C127.056 20.4617 127.313 20.9867 127.826 21.36C128.34 21.7333 129.016 21.92 129.856 21.92ZM143.945 32.7L147.97 23.845H146.92L140.165 7.64H145.03L149.895 19.855L154.97 7.64H159.73L148.705 32.7H143.945Z" fill="white"/>
</svg>
